<svg width="170" height="33" viewBox="0 0 170 33" fill="none" xmlns="http://www.w3.org/2000/svg">
<g clip-path="url(#clip0)">
<path d="M90.2652 32.8978C88.5722 32.8978 86.8425 32.8978 85.1495 32.8978C82.8907 32.8606 81.9292 31.9679 81.9292 29.7127C81.9108 20.8408 81.9108 11.9704 81.9292 3.10158C81.9292 1.44158 82.5687 0.413961 84.1696 0.344214C89.2623 0.130321 94.447 -0.618306 99.3879 1.13004C105.718 3.37127 110.618 9.33703 110.208 17.2046C109.748 26.3508 102.443 32.0283 96.7656 32.6467C94.6034 32.8839 92.409 32.7769 90.233 32.8839L90.2652 32.8978ZM89.9478 24.8396H94.0514C97.2303 24.8396 100.446 22.6728 101.605 19.7713C102.224 18.2297 102.374 16.5367 102.037 14.9084C101.699 13.2802 100.889 11.7905 99.7099 10.6297C96.922 7.83978 93.4533 8.15131 89.9478 8.25826V24.8396Z" fill="#F2796C"/>
<path d="M120.191 8.09542V12.4291H124.759C126.236 12.4291 127.713 12.4291 129.185 12.4291C129.714 12.43 130.241 12.4971 130.754 12.629C132.359 13.0615 133.054 14.7401 132.796 17.3068C132.557 19.4876 131.757 20.4268 129.939 20.4733C127.179 20.5524 124.419 20.5617 121.659 20.5989H120.219V24.7837C120.61 24.7837 121.01 24.8349 121.41 24.8349C125.422 24.8349 129.438 24.8349 133.45 24.8349C133.94 24.8302 134.43 24.8581 134.917 24.9186C136.711 25.1743 137.498 25.9555 137.581 27.7596C137.625 28.8237 137.56 29.8895 137.388 30.9401C137.185 32.2002 136.316 32.8559 135.087 32.8838C132.212 32.9535 129.337 33.0047 126.462 33C122.68 33 118.894 33 115.112 32.8791C113.028 32.8094 112.237 31.8748 112.15 29.7498C112.099 28.4897 112.15 27.2249 112.15 25.9648C112.15 18.835 112.15 11.7176 112.15 4.61268C112.15 4.26859 112.15 3.9245 112.15 3.58041C112.228 1.16713 113.157 0.0744196 115.531 0.0511703C121.912 2.19364e-05 128.297 2.19364e-05 134.692 0.0465205C136.362 0.0465205 137.291 0.864894 137.516 2.45979C137.664 3.52097 137.664 4.59772 137.516 5.65889C137.268 7.37004 136.371 8.07681 134.618 8.08611C130.303 8.10936 125.988 8.08611 121.672 8.08611L120.191 8.09542Z" fill="#F2796C"/>
<path d="M154.814 11.0063C157.473 7.9281 160.049 4.92895 162.635 1.94839C164.839 -0.581127 166.14 -0.622976 168.519 1.7345C170.442 3.63629 170.479 4.87315 168.638 6.91909C166.078 9.78029 163.507 12.6353 160.928 15.4841C160.666 15.7817 160.413 16.0886 160.082 16.4792L165.515 22.524C166.637 23.7794 167.815 24.9931 168.873 26.295C170.456 28.2154 170.354 29.4011 168.569 31.1448C168.28 31.4238 167.981 31.6935 167.649 31.9399C165.929 33.2884 164.747 33.2791 163.27 31.6377C160.648 28.7315 158.122 25.737 155.555 22.803C155.325 22.5379 155.095 22.2822 154.768 21.9521C152.804 24.2491 150.895 26.5043 148.93 28.7269C148.01 29.7731 147.136 30.8565 146.17 31.8376C144.822 33.1954 143.75 33.2326 142.2 32.1213C139.044 29.8615 138.864 28.4014 141.422 25.5324C144.1 22.5333 146.8 19.5481 149.57 16.4699C148.19 14.954 146.883 13.4614 145.549 11.9781C143.994 10.2298 142.393 8.50933 140.843 6.75169C139.14 4.822 139.191 3.63629 140.999 1.82285C141.151 1.6694 141.307 1.51131 141.459 1.35786C143.557 -0.502079 144.877 -0.460231 146.736 1.66475C149.418 4.72435 152.059 7.81186 154.814 11.0063Z" fill="#F2796C"/>
<path d="M8.05972 8.08609V12.3547C8.48756 12.3779 8.8878 12.4151 9.28804 12.4151C11.9011 12.4151 14.5141 12.4151 17.1088 12.4151C19.478 12.4151 20.2877 13.0847 20.5591 15.4189C20.662 16.442 20.6124 17.4749 20.4119 18.4832C20.1819 19.6596 19.455 20.4733 18.1393 20.4919C15.3376 20.5337 12.5359 20.5616 9.73888 20.5942C9.20983 20.5942 8.68538 20.5942 7.99992 20.5942V23.6491C7.99992 25.7555 7.99992 27.8619 7.99992 29.9636C7.97691 31.7817 7.11663 32.7536 5.32246 32.8745C4.42104 32.9558 3.51423 32.9558 2.6128 32.8745C1.14526 32.7164 0.395392 31.9817 0.137768 30.4984C0.0387051 29.8555 -0.00745736 29.2054 -0.000245592 28.5547C-0.000245592 20.557 -0.000245592 12.5562 -0.000245592 4.55221C-0.000245592 0.869522 0.855436 0 4.47598 0H21.861C24.5523 0 25.4586 0.92997 25.5184 3.64548C25.592 7.23982 24.8559 8.19304 21.1112 8.10004C16.8052 8.0024 12.4899 8.08609 8.05972 8.08609Z" fill="#F2796C"/>
<path d="M38.2159 7.67691C38.0733 7.26307 37.8939 7.57926 37.8617 7.9466C37.6822 9.76469 37.5028 11.6246 37.3418 13.4846C37.1311 15.0508 37.0143 16.6284 36.9922 18.2088C36.9922 18.8226 37.052 19.4364 37.1118 20.0688C37.1323 20.4202 37.2608 20.7565 37.4793 21.0307C37.6978 21.3049 37.9955 21.5034 38.3309 21.5986C38.7136 21.6815 39.0493 21.912 39.2666 22.2411C39.4839 22.5701 39.5658 22.9718 39.4948 23.3609C39.2924 26.267 39.1038 29.1732 38.9106 32.084C38.8554 32.9582 38.86 32.9582 38.0411 32.8559C30.8966 31.9259 24.9436 25.9555 24.1478 18.725C23.3979 11.9222 25.8959 6.52374 31.5085 2.72481C37.3418 -1.22756 45.3374 -0.660278 50.7199 3.90588C51.0925 4.22207 51.4514 4.79865 51.824 4.80795C52.1966 4.81725 52.5647 4.24532 52.9419 3.93843C57.8276 1.17254e-06 63.2975 -1.05087 69.1078 1.13457C75.0194 3.36184 78.4651 7.8629 79.5554 14.1542C79.7004 14.8995 79.7514 15.6604 79.7072 16.4186C79.3738 16.3249 79.0614 16.167 78.7872 15.9536C75.047 13.838 71.3207 11.7037 67.5759 9.60195C67.0376 9.29971 66.5684 8.82542 65.8921 8.80682L65.7449 8.66733C63.6793 6.83993 62.014 7.41187 60.712 9.10906C59.6561 10.4319 58.9097 11.9789 58.5289 13.6345C58.1481 15.29 58.1427 17.0112 58.513 18.6692C58.6501 19.5194 59.0323 20.3099 59.6116 20.9418C60.1909 21.5737 60.9418 22.0189 61.7701 22.2216C62.0405 22.3174 62.2686 22.5067 62.4142 22.756C62.5598 23.0053 62.6136 23.2986 62.566 23.5841C62.3728 26.5507 62.1658 29.5173 61.9726 32.4839C61.9726 32.7861 61.8944 32.907 61.5401 32.8652C58.1393 32.4802 54.9469 31.015 52.422 28.6803C52.2196 28.4989 52.0816 28.2153 51.7458 28.2153C51.5078 27.7634 51.1968 27.3548 50.8257 27.0063C48.5434 24.2473 47.2355 20.7985 47.1085 17.2045C47.0056 15.2346 47.2709 13.2627 47.8906 11.3921C47.9304 11.3156 47.954 11.2315 47.9599 11.1453C47.9658 11.059 47.9539 10.9725 47.9249 10.8911C47.8959 10.8098 47.8505 10.7354 47.7915 10.6728C47.7326 10.6101 47.6613 10.5606 47.5824 10.5273C45.917 9.54615 44.2655 8.53248 42.6093 7.53276C42.4115 7.36072 42.3379 7.48161 42.3103 7.66761C42.2827 7.8536 42.3103 7.97915 42.2735 8.13259C41.91 7.92335 41.2246 7.86755 41.1878 7.66761C41.036 7.04453 40.8611 7.59321 40.8473 8.13259C40.4149 8.06749 40.1021 7.66761 39.6604 7.62576C39.5638 7.30957 39.4166 7.35607 39.3246 7.62576C39.2903 7.7783 39.2733 7.93431 39.274 8.09074C38.9198 7.9559 38.5701 7.87685 38.2159 7.67691Z" fill="#F2796C"/>
<path d="M65.9012 8.79297C66.5775 8.79297 67.0467 9.28585 67.585 9.58809C71.3297 11.6898 75.0561 13.8241 78.7962 15.9398C79.0705 16.1531 79.3829 16.311 79.7163 16.4048C79.7163 22.0218 77.4161 26.4624 73.0135 29.8336C70.7657 31.4968 68.133 32.5487 65.3676 32.8885C65.0317 32.9397 64.8063 32.9304 64.7787 32.4654C64.5993 29.5174 64.3785 26.574 64.2036 23.6306C64.153 22.7332 64.4015 22.4728 65.2433 22.1566C67.401 21.3522 68.3348 19.6318 68.4637 17.4603C68.6707 14.3077 67.9576 11.4155 65.9702 8.88597C65.9518 8.85174 65.9286 8.8204 65.9012 8.79297Z" fill="#E65F50"/>
<path d="M42.6094 7.55139C44.2655 8.55111 45.9171 9.56478 47.5824 10.5459C47.6614 10.5792 47.7326 10.6288 47.7916 10.6914C47.8505 10.754 47.896 10.8284 47.925 10.9097C47.954 10.9911 47.9659 11.0776 47.96 11.1639C47.9541 11.2502 47.9305 11.3342 47.8907 11.4108C47.2733 13.2755 47.008 15.2408 47.1086 17.2045C47.2408 20.8007 48.5552 24.2498 50.8442 27.0064C51.2153 27.3548 51.5263 27.7634 51.7642 28.2153C49.7995 30.2452 47.3223 31.6925 44.6014 32.4002C43.8423 32.6094 43.0648 32.7396 42.3011 32.8652C42.0159 32.921 41.7721 32.9396 41.7445 32.4792C41.5605 29.5126 41.3488 26.546 41.1372 23.5841C41.0682 22.5751 41.2522 21.8264 42.3885 21.4544C43.373 21.1383 43.4972 20.1199 43.5847 19.2086C43.7457 17.623 43.4374 16.0606 43.304 14.489C43.0878 12.2012 42.8394 9.87632 42.6094 7.55139Z" fill="#E65F50"/>
<path d="M39.6603 7.65845C40.1203 7.7003 40.4148 8.12343 40.8472 8.16528C40.7736 11.011 40.7015 13.8582 40.631 16.7071C40.631 16.9442 40.5896 17.172 40.2905 17.172C39.9915 17.172 39.9087 16.9953 39.8995 16.7303C39.8305 13.7172 39.7339 10.6948 39.6603 7.65845Z" fill="#D95A4C"/>
<path d="M38.2158 7.67676C38.57 7.8767 38.9197 7.95575 39.2739 8.14174C39.1205 11.0061 38.9672 13.8704 38.8139 16.7347C38.8139 16.9811 38.7448 17.1997 38.4412 17.1764C38.1376 17.1532 38.087 16.8463 38.0916 16.5719C38.1284 14.1354 38.1637 11.6973 38.1974 9.25771C38.2066 8.69507 38.2112 8.24869 38.2158 7.67676Z" fill="#D95A4C"/>
<path d="M41.1787 7.65845C41.5421 7.86304 41.9102 7.94674 42.2736 8.15598C42.3012 9.44554 42.3273 10.7336 42.3518 12.02C42.3518 13.5359 42.4024 15.0517 42.4208 16.5676C42.4208 16.828 42.4668 17.1534 42.085 17.1767C41.7032 17.1999 41.717 16.8791 41.6986 16.6141C41.5483 13.9357 41.3949 11.2574 41.2385 8.57912C41.2356 8.27134 41.2157 7.96397 41.1787 7.65845Z" fill="#D95A4C"/>
</g>
<defs>
<clipPath id="clip0">
<rect width="170" height="33" fill="white"/>
</clipPath>
</defs>
</svg>
